<svg version="1.2" xmlns="http://www.w3.org/2000/svg" viewBox="0 0 1017 632" width="1017" height="632">
	<title>2202</title>
	<style>
		.s0 { fill: #87c47e } 
		.s1 { fill: #9dd394 } 
		.s2 { fill: #9fd098 } 
		.s3 { fill: #f7a794 } 
		.s4 { fill: #444f5e } 
		.s5 { fill: #f7aa97 } 
		.s6 { fill: #3d444f } 
		.s7 { fill: #515a69 } 
		.s8 { fill: #333b47 } 
		.s9 { fill: #ff7171 } 
		.s10 { fill: #ff4d4d } 
		.s11 { fill: #f8bdad } 
		.s12 { fill: #cb7e64 } 
		.s13 { fill: #aca9ba } 
		.s14 { fill: #c8c6d1 } 
		.s15 { fill: #ff8d8d } 
		.s16 { fill: #ff8585 } 
		.s17 { fill: #747b87 } 
		.s18 { fill: #6d4155 } 
		.s19 { fill: #ef9a89 } 
		.s20 { fill: #77465a } 
		.s21 { fill: #ffffff } 
		.s22 { fill: #523140 } 
		.s23 { opacity: .5;fill: #ff4d4d } 
	</style>
	<g id="_Artboards_">
	</g>
	<g id="Layer 1">
		<g id="&lt;Group&gt;">
			<g id="&lt;Group&gt;">
				<g id="&lt;Group&gt;">
					<path id="&lt;Path&gt;" class="s0" d="m124.7 219.7c3.2 10.8-2.6 22.2-13.1 25.5-10.6 3.4-21.7-2.6-25-13.4-3.2-10.7 7.4-44.4 7.4-44.4 0 0 27.4 21.6 30.7 32.3z"/>
					<path id="&lt;Path&gt;" class="s0" d="m185.2 336.6c-3.6 7.3-12.4 10.1-19.5 6.4-7.1-3.8-9.9-12.7-6.2-20 3.6-7.2 26-19.2 26-19.2 0 0 3.4 25.5-0.3 32.8z"/>
					<path id="&lt;Path&gt;" class="s0" d="m202.8 111.9c-1.5 6-7.4 9.6-13.2 8.1-5.8-1.5-9.4-7.5-7.9-13.5 1.4-5.9 15.7-18.5 15.7-18.5 0 0 6.8 18 5.4 23.9z"/>
					<path id="&lt;Path&gt;" class="s0" d="m308.1 330c-3.8 5.6-11.4 6.9-16.9 3-5.4-3.9-6.8-11.7-2.9-17.3 3.9-5.5 23.7-12.8 23.7-12.8 0 0 0 21.5-3.9 27.1z"/>
					<path id="&lt;Path&gt;" class="s1" d="m346.7 504c5 10.2 0.9 22.7-9.1 27.8-10 5.1-22.2 0.9-27.2-9.3-5-10.3 0.3-45.9 0.3-45.9 0 0 31 17.1 36 27.4z"/>
					<path id="&lt;Path&gt;" class="s1" d="m520.1 217.7c3.6 7.4 0.7 16.4-6.6 20.1-7.2 3.7-16 0.7-19.7-6.8-3.6-7.4 0.2-33.1 0.2-33.1 0 0 22.5 12.4 26.1 19.8z"/>
					<path id="&lt;Path&gt;" class="s0" d="m586.5 456.3c3.3 10.8-2.6 22.2-13.1 25.5-10.5 3.3-21.7-2.7-24.9-13.4-3.3-10.8 7.4-44.4 7.4-44.4 0 0 27.4 21.6 30.6 32.3z"/>
					<path id="&lt;Path&gt;" class="s0" d="m637.3 400.8c-1.6 5.3 1.2 10.9 6.4 12.5 5.2 1.7 10.6-1.3 12.2-6.6 1.6-5.2-3.6-21.7-3.6-21.7 0 0-13.4 10.6-15 15.8z"/>
					<path id="&lt;Path&gt;" class="s0" d="m636.4 521.4c6.5 7.3 17.5 7.8 24.6 1.1 7.1-6.6 7.5-17.9 1-25.2-6.5-7.2-36-13.8-36-13.8 0 0 3.8 30.7 10.4 37.9z"/>
					<path id="&lt;Path&gt;" class="s0" d="m598.3 211.8c-3.8 11.4-15.9 17.7-27.1 13.9-11.3-3.9-17.3-16.3-13.6-27.7 3.7-11.5 33.6-34.2 33.6-34.2 0 0 10.8 36.5 7.1 48z"/>
					<path id="&lt;Path&gt;" class="s2" d="m81.5 400.8c12.8 15.2 11.1 38.1-3.8 51.2-14.8 13-37.2 11.3-50-3.9-12.8-15.2-18.7-77.9-18.7-77.9 0 0 59.7 15.5 72.5 30.6z"/>
				</g>
				<g id="&lt;Group&gt;">
					<g id="&lt;Group&gt;">
						<path id="&lt;Path&gt;" class="s3" d="m490.6 230.4c33.4 14.4 89.7 6.2 128.2-2l-2.2 42.5c-31.5 2.9-110-10.8-110-10.8l-31.1-10z"/>
					</g>
					<path id="&lt;Path&gt;" class="s4" d="m508.6 234.2c0 0 7.3 20-8.3 29.2-21.6-3.9-21.6-3.9-21.6-3.9l8.1-30.9c0 0 12.5 5.6 21.8 5.6z"/>
					<g id="&lt;Group&gt;">
						<path id="&lt;Path&gt;" class="s5" d="m557.9 557.3l-11.7 8.7-24.5-8.7-1.3-22.2c8.2 2.2 21.9 3.9 37.6-1.3q-0.1 11.6-0.1 23.5z"/>
					</g>
					<g id="&lt;Group&gt;">
						<path id="&lt;Path&gt;" class="s4" d="m518.9 556c-0.5 1.6-1.3 3.1-2.4 4.4-7.6 8.6-26.6 10.4-37.8 13.9-9.2 3-15.6 11.7-15.6 21.6h94.2c3.7-8.4 4.7-17.8 2.9-26.9 0 0 3.5-13.7-3.1-12.5-17.3 8.1-26.3-6.6-32.5-5.1-4 0.9-5.3 3.1-5.7 4.6z"/>
					</g>
					<g id="&lt;Group&gt;">
						<path id="&lt;Path&gt;" class="s4" d="m564.5 400.9q0-0.2 0-0.2 0.8-9 1.6-16.8c2.8-28.6-8.9-56.5-31-74.1l-6.8-7c-9.2-9.4-24.6-7-30.8 4.7-9.6 18.2-11 39.5-7.2 60.6l6.3 42.2v0.1l15.5 121.9c0 0 1.1 0.5 3 1.2 6.5 2.4 23.1 6.9 42.9 0.3q4.2-1.3 8.5-3.4c-4-73-2.1-126.2-2-129.5z"/>
					</g>
					<g id="&lt;Group&gt;">
						<path id="&lt;Path&gt;" class="s6" d="m726.3 155.5c-44-39.7-94.6-28.8-95.1-28.7l-1.7-7.4c2.2-0.5 54.8-12 101.8 30.3z"/>
					</g>
					<g id="&lt;Group&gt;">
						<path id="&lt;Path&gt;" class="s4" d="m727.7 303.5c-20.6-5.3-160.3-15.4-205.6-15.4-34.5 0-38.3 62.1-9.5 76.3 26.1 12.8 102.6 32.4 157.2 44 134.9 28.6 122.6-67.8 122.6-67.8 0 0-35.9-29.7-64.7-37.1z"/>
					</g>
					<g id="&lt;Group&gt;">
						<path id="&lt;Path&gt;" class="s4" d="m920.8 560.4c12 0.7 12.9-5.7 30.2-5.7l12.4 12.2 45.1 14.8c2.5 0.9 4 3.5 3.4 6.1-1.5 6.2-6.8 10.6-13.1 10.8l-81.5-4z"/>
					</g>
					<g id="&lt;Group&gt;">
						<path id="&lt;Path&gt;" class="s7" d="m645.8 562.9c10.3 24.3 30.2 35.4 50.4 35.4 135.6 0 221.1 2.7 221.1 2.7 0 0 4.2-10.3 5.9-19.8 1.8-9.5-2.4-20.8-2.4-20.8-155.2-10.4-150.8-35.2-197.6-31.6-46.8 3.6-77.4 34.1-77.4 34.1z"/>
					</g>
					<g id="&lt;Group&gt;">
						<path id="&lt;Path&gt;" class="s7" d="m716.6 317.2c-26 28.9-58.1 161.3-72.1 223.4-4.9 21.8 6.5 44 26.9 52.2 19.7 8 42.1 0.3 53.2-18.2 29.1-48.8 103.2-148.7 109.7-228.4 4.3-52.5-82-68.5-117.7-29z"/>
					</g>
					<path id="&lt;Path&gt;" class="s8" d="m713.8 587.3q-0.2 0-0.4-0.2c-0.1-0.2-0.1-0.5 0.1-0.6 4.3-3.4 7.9-7.4 10.7-12.1 5.3-8.9 11.9-19.3 19.6-31.3 5-7.6 10.1-15.6 15.4-24 0.1-0.3 0.4-0.3 0.6-0.2 0.2 0.2 0.3 0.4 0.1 0.7-5.3 8.4-10.4 16.4-15.3 24-7.7 12-14.4 22.4-19.6 31.2-2.9 4.9-6.6 9-10.9 12.4q-0.2 0.1-0.3 0.1z"/>
					<path id="&lt;Path&gt;" class="s9" d="m832.1 359.5c-6.9 23.8-27.6 41.9-53.5 43.5-50.7 3.3-102.3 11.5-85.9-40.9 3.9-12.3 4.4-23.6 2.4-33.8-3.9-20.7-17.5-37.5-32.7-51.6-17.1-15.9-36.1-28.4-45.5-39.2-4.8-5.6-9-11.4-12.5-17.2-34.3-56.3-1-99.9 42.6-99 65.4 1.2 126.4 51.6 154.9 111.3v0.1c4.8 8.2 8.9 16.2 12.5 24.1 12.2 27.1 17.5 52.7 19.9 79.9 0.6 7.9-0.2 15.6-2.2 22.8z"/>
					<g id="&lt;Group&gt;">
						<path id="&lt;Path&gt;" class="s5" d="m645.8 135.9q-0.2-0.4-0.3-0.8 0 0 0 0c-1.7-4.8-5-9-9.7-11.6-9.5-5.3-21.5-13.4-30.8-24.3-10.9 14.5-27.4 37.6-27.4 37.6l23.7 30.6c0 0-6.2 21.9 6.6 22.5 12.8 0.7 45.5-29.6 37.9-54z"/>
					</g>
					<g id="&lt;Group&gt;">
						<path id="&lt;Path&gt;" class="s6" d="m630.1 245.9c-30.7-26.4-39.2-51.1-40.8-67.1-1.8-17.7 3.9-29 4.2-29.5l6.6 3.6c-0.1 0.1-5.1 10.1-3.3 25.6 2.3 20.8 15.5 42.1 38.1 61.6z"/>
					</g>
					<g id="&lt;Group&gt;">
						<path id="&lt;Path&gt;" class="s6" d="m665.6 252.3c-2.2-3.1-52.4-76.9-14.8-114.3 8.1-8.2 18.8-11.6 31.6-10.1 40.2 4.4 94.2 56.4 116.2 90.6l-6.2 4.2c-21.7-33.7-74.3-83.2-110.8-87.2-10.5-1.2-19.1 1.5-25.6 7.9-33 32.9 15.2 103.8 15.7 104.5z"/>
					</g>
					<g id="&lt;Group&gt;">
						<path id="&lt;Path&gt;" class="s7" d="m821 401.8c-30 10.6-141.3 2.5-141.3 2.5 0 0 32.1-73-34.2-136.6 0 0 5.1-1.9 12.4-6.1 9.3-5.2 22-13.9 32.7-26.6 0 0 31.9 98.2 81 88.1q0.6-0.1 1.2-0.2c28.9-6.1 44.9-37.8 33.3-65.5q-1.6-4-3.2-7.6c-11.1-25.2-19.6-38.4-23.4-43.7-1.2-1.7-1.2-4 0.1-5.7l1-1.5c1.5-1.9 4.4-1.9 5.8 0 75.4 102.3 52.5 158.7 34.6 202.9z"/>
					</g>
					<path id="&lt;Path&gt;" class="s10" d="m695.4 267.7c-2.4 4.8-10.7 5.8-21.5 3.4-7.3-1.5-15.7-4.6-24.2-9-15.5-8.1-27.3-18.5-30.9-26.6-1.3-3-1.6-5.6-0.5-7.8 0.9-1.7 2.6-3 5-3.7 8.2-2.6 24.2 0.8 40.7 9.4 8.2 4.3 15.4 9.2 20.8 14.1 8.6 7.7 13 15.4 10.6 20.2z"/>
					<g id="&lt;Group&gt;">
						<path id="&lt;Path&gt;" class="s11" d="m684.8 247.5c-3.3 7.7-6.9 15.7-10.9 23.6q-1.2 2.4-2.4 4.7c-13.2 25.6-24.1 41.9-47.1 55.4l-37.8-28.8c17.4-21 21.9-40.9 32.2-66.9q0.9-2.1 1.7-4.2 1.4-3.7 2.8-7.3c8.2-2.6 24.2 0.8 40.7 9.4 8.2 4.3 15.4 9.2 20.8 14.1z"/>
					</g>
					<g id="&lt;Group&gt;">
						<g id="&lt;Group&gt;">
							<g id="&lt;Group&gt;">
								<path id="&lt;Path&gt;" class="s12" d="m442.9 393.3l1-0.7c4.1-3.2 4.9-9.2 1.8-13.5l-81.5-110.8c-3.1-4.2-9-5.1-13.2-1.9l-0.9 0.7c-4.2 3.2-5 9.3-1.9 13.5l81.5 110.8c3.2 4.3 9.1 5.1 13.2 1.9z"/>
								<g id="&lt;Group&gt;">
									<path id="&lt;Path&gt;" class="s13" d="m350.7 279.6q-0.1 0-0.1 0-0.7-0.6-1.3-1.4l-159.1-217.4c0 0 60.1 14.2 117.3 133.7l10.1 13.7c18.7 25.5 44.2 60.8 44.2 60.8 2.5 3.5 1.8 8.4-1.5 11-2.8 2.1-6.6 2-9.3-0.1q-0.2-0.1-0.3-0.3z"/>
								</g>
							</g>
							<g id="&lt;Group&gt;">
								<path id="&lt;Path&gt;" class="s12" d="m531 263.6c-1.6 5.4-7.1 8.5-12.4 6.9l-129-38.6c-5.3-1.6-8.4-7.3-6.8-12.7 1.2-4.5 5.2-7.4 9.6-7.4q1.4 0 2.8 0.5l57 17 7.4 2.3 30 8.9 34.6 10.4c5.3 1.6 8.3 7.3 6.8 12.7z"/>
								<path id="&lt;Path&gt;" class="s14" d="m394.6 214.8q0 0-0.1-0.1-0.8-0.4-1.7-0.7l-255.1-75.7c0 0 34.2 52.5 163.8 65.2l16.1 4.8c29.9 8.9 71.2 20.8 71.2 20.8 4 1.2 8.3-1.1 9.5-5.3 1-3.4-0.5-7-3.4-8.8q-0.1-0.1-0.3-0.2z"/>
							</g>
							<g id="&lt;Group&gt;">
								<path id="&lt;Path&gt;" class="s13" d="m299 192.8c1.1 0.8 1.4 2.5 0.6 3.7-0.8 1.2-2.4 1.5-3.6 0.6-1.1-0.8-1.4-2.4-0.6-3.6 0.8-1.2 2.4-1.5 3.6-0.7z"/>
							</g>
						</g>
						<g id="&lt;Group&gt;">
							<g id="&lt;Group&gt;">
								<path id="&lt;Path&gt;" class="s4" d="m405.9 338.3l-9.2 9c-2.4 2.3-2.8 6-1 8.7l1.3 2.1c0.1 2.7 1.6 5.1 3.9 6.5l1.8 1.1c0.5 2.7 2.1 4.9 4.5 6.1l0.7 0.3c1.5 2.6 4.4 3.9 7.4 3.5l7.8-1.3 2.1-16.2z"/>
							</g>
							<g id="&lt;Group&gt;">
								<g id="&lt;Group&gt;">
									<g id="&lt;Group&gt;">
										<path id="&lt;Path&gt;" class="s7" d="m443.4 331.7c0 0-26-3.9-36.6 5.6-10.5 9.5-2.3 29.7 8.2 35.9 15.8 4.9 32.1-7.4 32.1-7.4z"/>
									</g>
								</g>
								<g id="&lt;Group&gt;">
									<path id="&lt;Path&gt;" class="s11" d="m447.1 365.8l-0.4-3.6 2 3.6c-1 0-1.6 0-1.6 0z"/>
								</g>
								<g id="&lt;Group&gt;">
									<path id="&lt;Path&gt;" class="s11" d="m446.7 362.2l-3.3-30.5c92.2-11.9 95.7-29 139.4-38.9q3.5-0.7 6.7-1.3 2.8-0.5 5.5-0.5c11.4 0 22.1 6.1 28.1 16.3 4.5 7.7 4.6 16.5 1.3 23.9-56.7 31.9-177.7 31-177.7 31z"/>
								</g>
							</g>
						</g>
					</g>
					<g id="&lt;Group&gt;">
						<path id="&lt;Path&gt;" class="s4" d="m449.6 256.6l-2.1-0.9c-2.1-0.9-2.9-3.4-1.8-5.3l5.4-9.9c0.9-1.7 3-2.4 4.8-1.7 1.7 0.8 2.6 2.8 2 4.7l-3.3 10.8c-0.7 2.2-3 3.2-5 2.3z"/>
						<path id="&lt;Path&gt;" class="s4" d="m460.6 260l-2.4-0.7c-2.2-0.6-3.5-3.1-2.6-5.3l4.1-11.2c0.8-2 2.8-3 4.8-2.5 1.9 0.6 3.2 2.5 2.8 4.6l-1.8 11.8c-0.4 2.4-2.7 3.9-4.9 3.3z"/>
						<path id="&lt;Path&gt;" class="s4" d="m470.5 263l-2.2-0.5c-2.2-0.5-3.4-2.8-2.8-4.9l3.5-10.8c0.6-1.8 2.4-2.9 4.3-2.5 1.9 0.4 3.1 2.2 2.9 4.1l-1.2 11.3c-0.2 2.2-2.3 3.8-4.5 3.3z"/>
						<path id="&lt;Path&gt;" class="s4" d="m480.3 264.8l-2.1-0.3c-2-0.3-3.4-2.3-2.9-4.4l2.5-10.1c0.4-1.8 2.1-2.9 3.8-2.7 1.8 0.3 3.1 1.8 3 3.7l-0.4 10.4c-0.1 2.1-1.9 3.7-3.9 3.4z"/>
					</g>
					<path id="&lt;Path&gt;" class="s4" d="m468.9 226.6l-11.1-1.7c-2.6-0.1-5 1.3-6.3 3.5l-0.4 0.7-3.1 5.2c-0.5 0.6-0.1 1.5 0.6 1.8q1.3 0.5 2.6 0.5c2 0 4.1-0.8 5.5-2.4l2.6-2.7 32.9 9.9q1.1-1.2 1.8-3c2.1-6-4.7-12.5-25.1-11.8z"/>
					<path id="&lt;Path&gt;" class="s15" d="m714.3 184.5q0 1.4-0.1 1.8c-0.7 16-6.1 51.7-14.2 72.1-1.5 3.7-3 6.8-4.6 9.3 2.4-4.8-2-12.5-10.6-20.2q-1.6-1.5-3.4-2.9c-4.2-3.4-9.2-6.7-14.8-9.8q-1.3-0.7-2.6-1.4c-16.5-8.6-32.5-12-40.7-9.4-2.4 0.7-4.1 2-5 3.7 0.3-1.6 8.8-52.6 30.6-78.1 9-10.5 23-14.8 36.2-10.9 27.4 8 29.3 38.1 29.2 45.8z"/>
					<path id="&lt;Path&gt;" class="s16" d="m714.3 184.5q0 1.4-0.1 1.8c-0.7 16-6.1 51.7-14.2 72.1-1.5 3.7-3 6.8-4.6 9.3 2.4-4.8-2-12.5-10.6-20.2q-1.6-1.5-3.4-2.9c-4.2-3.4-9.2-6.7-14.8-9.8q-1.3-0.7-2.6-1.4c-16.5-8.6-32.5-12-40.7-9.4-2.4 0.7-4.1 2-5 3.7 0.3-1.6 8.8-52.6 30.6-78.1 9-10.5 23-14.8 36.2-10.9 27.4 8 29.3 38.1 29.2 45.8z"/>
					<g id="&lt;Group&gt;">
						<path id="&lt;Path&gt;" class="s17" d="m664.1 510.6l-2.5-0.7c-8.7-2.4-13.8-11.7-11.4-20.6l11.1-41.5c2.3-8.7 11.2-13.9 19.8-11.5l17.8 5c4.4 1.2 7 5.9 5.8 10.4l-11.2 41.8c-3.5 13-16.7 20.7-29.4 17.1z"/>
					</g>
					<g id="&lt;Group&gt;">
						<path id="&lt;Path&gt;" class="s17" d="m664.1 510.6l-2.5-0.7c-8.7-2.4-13.8-11.7-11.4-20.6l11.1-41.5c2.3-8.7 11.2-13.9 19.8-11.5l17.8 5c4.4 1.2 7 5.9 5.8 10.4l-11.2 41.8c-3.5 13-16.7 20.7-29.4 17.1z"/>
					</g>
					<path id="&lt;Compound Path&gt;" fill-rule="evenodd" class="s4" d="m670.4 511.9q-3.2 0-6.5-0.9l-2.4-0.6c-4.3-1.3-7.9-4.1-10.2-8.1-2.2-4-2.8-8.7-1.6-13.1l11.2-41.5c1.1-4.4 3.9-8 7.7-10.2 3.9-2.3 8.3-2.8 12.6-1.6l17.8 5c2.3 0.6 4.1 2.1 5.3 4.1 1.1 2.1 1.4 4.5 0.8 6.8l-11.2 41.8c-1.7 6.4-5.8 11.8-11.4 15.1-3.8 2.1-7.9 3.2-12.1 3.2zm6.4-75.7c-2.7 0-5.3 0.7-7.7 2.1-3.7 2.1-6.3 5.5-7.4 9.7l-11.1 41.4c-1.1 4.2-0.6 8.6 1.5 12.4 2.1 3.8 5.5 6.5 9.7 7.7l2.4 0.6c6 1.7 12.4 0.9 17.8-2.3 5.5-3.1 9.4-8.3 11-14.5l11.2-41.8c0.6-2 0.3-4.2-0.7-6-1-1.9-2.7-3.2-4.7-3.8l-17.8-4.9q-2.1-0.6-4.2-0.6z"/>
					<g id="&lt;Group&gt;">
						<path id="&lt;Path&gt;" class="s17" d="m691 348.8l17.4-2.9c5.1-0.9 8.3-6 6.9-11.1-3-11.3-8.6-30.6-14.7-45.3-2.6-6-10-8-15.1-4-4.8 3.7-10 6.3-13.7 7.8-2.6 1.1-3.6 4.1-2.3 6.6 4.4 8.3 13 26.4 14.5 43.4 0.4 3.6 3.5 6.1 7 5.5z"/>
					</g>
					<path id="&lt;Compound Path&gt;" fill-rule="evenodd" class="s4" d="m690 349.4c-1.4 0-2.8-0.5-3.9-1.4-1.5-1.1-2.4-2.8-2.5-4.6-1.5-16.8-9.7-34.3-14.5-43.3-0.7-1.3-0.8-2.8-0.3-4.2 0.4-1.3 1.5-2.4 2.8-3 3.6-1.5 8.8-4 13.6-7.8 2.6-2 5.8-2.6 9-1.8 3 0.8 5.5 3 6.8 6 6.3 15 11.9 34.9 14.8 45.4 0.6 2.5 0.2 5.3-1.2 7.5-1.3 2.2-3.6 3.7-6.1 4.1l-17.5 3q-0.5 0.1-1 0.1zm1.5-65.5c-2 0-4 0.7-5.7 2-4.9 3.8-10.2 6.4-13.9 7.9-1 0.4-1.9 1.3-2.3 2.4-0.4 1.2-0.3 2.4 0.3 3.5 4.8 9 13.1 26.7 14.6 43.6 0.1 1.6 0.9 3 2.1 4 1.2 0.9 2.8 1.3 4.3 1.1l17.4-3c2.3-0.4 4.3-1.7 5.6-3.7 1.2-2 1.6-4.5 1-6.8-2.8-10.5-8.5-30.3-14.7-45.2-1.2-2.7-3.5-4.7-6.3-5.5q-1.2-0.3-2.4-0.3z"/>
					<g id="&lt;Group&gt;">
						<path id="&lt;Path&gt;" class="s18" d="m617.3 31.9c0 0 6.1-7.9-3.1-21.9 1.8 8.5-1.3 11.8-1.3 11.8 0 0-1.4-13.7-6.5-15.5 3 8.7-5.4 20-5.4 20z"/>
						<g id="&lt;Group&gt;">
							<path id="&lt;Path&gt;" class="s11" d="m530 114.1c1.4 3.1 2.1 4.7 2.1 4.7 0 0 0.1 0.9 0.2 2.5 0.4 4.1 1.5 12.7 4.9 21.6 7 17.9 25.5 36.5 31.5 43.4 1.1 1.2 2.7 1.7 4.3 1.3 4.6-1.2 14.4-3.9 17.3-5.4 5.7-2.9 29.4-30.4 31.6-41.7-0.6-6.4 0.2-29.3 0.2-29.3 0 0 1.9-7.9 4.9-14.1 2.5-5.3 8.3-22.6 5.5-30-12.3-18.1-24.6-32.6-24.6-32.6 0 0-15.9-5.6-42.6-2.4-23.3 11.5-48.8 52-45.7 58.9 4.7 10.3 8.3 18.3 10.4 23.1z"/>
						</g>
						<path id="&lt;Path&gt;" class="s19" d="m590.3 182.6c-0.1 0-0.3-0.1-0.4-0.2-0.1-0.3 0-0.5 0.2-0.7 5.2-2.6 29.1-29.8 31.3-41.2-0.1-2.3-0.2-6.6-0.1-13 0-0.2 0.2-0.4 0.4-0.4 0.3 0 0.5 0.2 0.5 0.5-0.1 6.3 0 10.7 0.2 12.8q0 0.1 0 0.2c-2.3 11.3-25.7 38.9-31.8 42q-0.1 0-0.3 0z"/>
						<g id="&lt;Group&gt;">
							<path id="&lt;Path&gt;" class="s20" d="m607.6 110.3c0 0-0.4-8.5-7.5-12.4-6.2-3.4 2.2-28.9 2.2-28.9 0 0-40.4 11.9-53 36 0 0-4.1-10.9 3.4-20.3-7.7 2.5-29.9 10.9-35.7 28.4-1.8-6.1-8.1-30.5 7.2-46.6-6.1 2.4-15 8.4-15 8.4 0 0 3.4-19.3 28.9-39.8 15.3-12.3 34.6-18.5 54.1-16.7 6 0.6 9.3 1.6 9.3 1.6 0 0 18.7 6.5 31.2 32.2 5.3 10.8 6.6 23.4 2.9 34.9-3 9.4-7.6 14-7.6 14z"/>
						</g>
						<g id="&lt;Group&gt;">
							<path id="&lt;Path&gt;" class="s11" d="m608.1 104.4c-1.8 9.5 1.7 18.2 7.9 19.4 6.2 1.3 12.7-5.4 14.5-14.9 1.9-9.4-1.7-18.1-7.9-19.4-6.2-1.2-12.7 5.5-14.5 14.9z"/>
						</g>
						<path id="&lt;Path&gt;" class="s18" d="m580.4 102.3c0 0-6.9-4.4-11.7-5.9-9.9 0.2-19.8 2.6-22.3 3.2-0.3 0.1-0.5 0.5-0.3 0.8l0.9 1.8c0.2 0.4 0.6 0.5 0.9 0.5 2.8-0.8 14.3-3.5 20.5-3.2 7.3 1.2 12 2.8 12 2.8z"/>
						<path id="&lt;Path&gt;" class="s18" d="m534.8 103.9l1.2 1.7c0.3 0.3 0.2 0.8-0.2 1-1.3 0.5-4 1.9-8.1 5.1-1-1.5 1.1-5 6.3-7.9 0.2-0.2 0.6-0.1 0.8 0.1z"/>
						<g id="&lt;Group&gt;">
							<g id="&lt;Group&gt;">
								<path id="&lt;Path&gt;" class="s19" d="m544.8 154.3c2 3 6.8 3.7 6.8 3.7 0 0 3.9-2.3 4.5-2.7-2.4-2 5.3-3.1 5.3-3.1 0 0-14.6-2.3-16.6 2.1z"/>
							</g>
							<g id="&lt;Group&gt;">
								<g id="&lt;Group&gt;">
									<path id="&lt;Compound Path&gt;" fill-rule="evenodd" class="s19" d="m551.6 158.5q-0.1 0-0.1 0c-0.2 0-5-0.7-7.2-3.9q-0.1-0.1-0.1-0.2c-2-25.7-4.9-40.7-5-40.9 0 0-1.9-5.7-3.9-8-0.2-0.2-0.2-0.5 0.1-0.7 0.2-0.2 0.5-0.2 0.7 0 2.2 2.5 4.1 8.2 4.2 8.4 0 0.3 3 15.3 5 40.9 1.7 2.4 5.3 3.2 6.2 3.3l9.4-5.5c0-1-0.3-4.4-3.9-5.2-0.3-0.1-0.5-0.4-0.4-0.7 0.1-0.3 0.4-0.5 0.7-0.4 5 1.2 4.6 6.6 4.6 6.6q0 0.3-0.2 0.5l-9.8 5.8q-0.2 0-0.3 0zm9.8-6.3z"/>
								</g>
							</g>
						</g>
						<g id="&lt;Group&gt;">
							<g id="&lt;Group&gt;">
								<path id="&lt;Path&gt;" class="s19" d="m615.2 118c-0.3-0.2-0.6-0.4-0.9-0.6 1.5-2.8 0-5.8-2.2-7.7 2.2-6.5 6.1-13 12.7-15.4-7.4 1.3-12.2 8.6-14.5 15.4-0.1 0.3-0.1 0.7 0.2 0.9 1 0.9 2 1.9 2.5 3.1 0.5 1.2 0.3 2.4-0.4 3.5-0.1 0.3-0.1 0.6 0.1 0.8 0.6 0.7 1.2 1 1.9 1.3 4.1 1.8 8.6-0.2 10.4-4.3 0.3-0.5 0.5-1.2 0.8-1.8-2.1 4-6.2 6.9-10.6 4.8z"/>
							</g>
							<g id="&lt;Group&gt;">
								<path id="&lt;Path&gt;" class="s19" d="m620.7 117.2q0.1 0.1 0.3 0.1 0.2-0.1 0.2-0.2c6.2-9.4-0.7-17.7-0.7-17.8-0.2-0.2-0.5-0.2-0.6 0-0.2 0.1-0.2 0.4-0.1 0.6 0.3 0.3 6.5 7.9 0.7 16.7-0.1 0.2 0 0.5 0.2 0.6z"/>
							</g>
						</g>
						<g id="&lt;Group&gt;">
							<path id="&lt;Path&gt;" class="s21" d="m564.7 168.2c0 0 2 1.5 4.6 0.7 4.1-1.3 13.2-8 13.6-8.3q0 0 0 0c-8.6 3.6-14.6 4.3-16.3 4.8-0.9 0.5-1.3 1.3-1.6 1.9-0.2 0.5-0.3 0.9-0.3 0.9z"/>
							<g id="&lt;Group&gt;">
								<path id="&lt;Path&gt;" class="s19" d="m567.7 169.7c-1.9 0-3.2-1-3.3-1-0.2-0.2-0.3-0.6-0.1-0.8 0.2-0.2 0.5-0.3 0.7-0.1 0.1 0 1.8 1.3 4.1 0.6 3.1-1.1 9.7-5.3 13.4-8.2 1-0.8 1.9-1.5 2.5-2 0.2-0.2 0.5-0.1 0.7 0.1 0.2 0.2 0.2 0.6-0.1 0.8-0.6 0.5-1.4 1.2-2.4 2-3.4 2.6-10.3 7.1-13.8 8.3q-0.9 0.3-1.7 0.3z"/>
							</g>
							<g id="&lt;Group&gt;">
								<g id="&lt;Group&gt;">
									<path id="&lt;Path&gt;" class="s19" d="m564.7 168.2c0 0-0.9 0.2-1.6 0.1z"/>
									<path id="&lt;Path&gt;" class="s19" d="m563.5 168.9q-0.3 0-0.5 0c-0.3 0-0.5-0.3-0.5-0.6 0.1-0.3 0.3-0.5 0.6-0.5 0.7 0.1 1.5-0.1 1.5-0.1 0.3-0.1 0.6 0.1 0.6 0.4 0.1 0.3-0.1 0.6-0.4 0.6 0 0.1-0.6 0.2-1.3 0.2z"/>
								</g>
							</g>
							<g id="&lt;Group&gt;">
								<path id="&lt;Path&gt;" class="s19" d="m585.6 159.7q-0.1 0-0.1 0c-0.3 0-0.5-0.3-0.5-0.6q-0.1-0.2-0.5-0.1c-0.3-0.1-0.6-0.3-0.6-0.6 0-0.3 0.2-0.5 0.5-0.5q1-0.1 1.4 0.4c0.3 0.3 0.3 0.7 0.3 1 0 0.2-0.3 0.4-0.5 0.4z"/>
							</g>
						</g>
					</g>
					<g id="&lt;Group&gt;">
						<path id="&lt;Path&gt;" class="s22" d="m558.9 119c-2.3 0-4.2-2.6-4.2-5.9 0-3.2 1.9-5.8 4.2-5.8 2.4 0 4.3 2.6 4.3 5.8 0 3.3-1.9 5.9-4.3 5.9z"/>
					</g>
					<g id="&lt;Group&gt;">
						<path id="&lt;Path&gt;" class="s22" d="m539.2 117.2c0.3 2.7-1.1 5-3 5.2-1.9 0.2-3.6-1.7-3.9-4.4-0.3-2.6 1-5 2.9-5.2 1.9-0.2 3.7 1.8 4 4.4z"/>
					</g>
					<g id="&lt;Group&gt;">
						<path id="&lt;Path&gt;" class="s7" d="m443.4 331.7l28.7-5.7c0 0 11 23.1 4.5 41.8-29.5-2-29.5-2-29.5-2z"/>
					</g>
					<g id="&lt;Group&gt;">
						<path id="&lt;Path&gt;" class="s5" d="m684.8 247.5c-3.3 7.7-6.9 15.7-10.9 23.6q-1.2 2.4-2.4 4.7c2.9-20.6-40.6-40.2-51-44.5q1.4-3.7 2.8-7.3c8.2-2.6 24.2 0.8 40.7 9.4 8.2 4.3 15.4 9.2 20.8 14.1z"/>
					</g>
					<path id="&lt;Path&gt;" class="s23" d="m772.8 322.9q-0.6 0.1-1.2 0.2c-33.4 6.9-58.8-36.3-71.6-64.7 8.1-20.4 13.5-56.1 14.2-72.1q0.1-0.4 0.1-1.8v53.4c0 24.9 15.1 47.4 38 55.5 20.1 7.1 42.2 2.6 50.6-43.6q1.6 3.6 3.2 7.6c11.6 27.7-4.4 59.4-33.3 65.5z"/>
					<path id="&lt;Path&gt;" class="s19" d="m569.2 297c-0.2 0-0.4-0.1-0.5-0.3 0-0.3 0.1-0.5 0.3-0.6 0.3-0.1 29.1-10.4 51.6-5.5 0.2 0 0.4 0.3 0.3 0.5 0 0.3-0.2 0.4-0.5 0.4-22.2-4.9-50.8 5.3-51.1 5.4q0 0.1-0.1 0.1z"/>
					<path id="&lt;Path&gt;" class="s10" d="m709.6 222.5q0 0-0.1 0c-0.2-0.1-0.4-0.3-0.3-0.6 2.4-13 4.2-26.7 4.6-35.7 0-0.1 0-0.6 0.1-1.7 0-6.1-1.1-37.2-29-45.4-12.8-3.8-26.9 0.5-35.7 10.8-12.9 15.2-21.2 39.4-25.8 57-0.1 0.3-0.4 0.4-0.6 0.3-0.2 0-0.4-0.3-0.3-0.5 4.7-17.8 13-42.1 26-57.4 9.1-10.6 23.5-15 36.7-11.1 28.4 8.4 29.6 40.1 29.6 46.3 0 0.9-0.1 1.6-0.1 1.8-0.4 9-2.2 22.7-4.6 35.8-0.1 0.2-0.3 0.4-0.5 0.4z"/>
				</g>
			</g>
		</g>
	</g>
</svg>